<svg width="2458" height="512" viewBox="0 0 2458 512" fill="none" xmlns="http://www.w3.org/2000/svg">
<rect width="2458" height="512" fill="white"/>
<rect width="512" height="512" rx="119" fill="#47A7F6"/>
<g clip-path="url(#clip0_1102_3098)">
<path d="M315.823 284.474L307.918 329.955C303.574 355.08 279.971 377.183 255.249 379.355L120.889 391.111L128.682 346.235L128.772 345.653C128.772 345.518 128.816 345.384 128.861 345.25C133.407 320.281 156.853 298.425 181.463 296.276L315.823 284.519V284.474Z" fill="white"/>
<path d="M380.338 159.789V159.923L380.181 160.684L380.024 161.535L375.546 187.422L370.821 214.697L368.537 227.842L368.38 228.76C364.259 251.176 343.165 270.837 321.04 272.785L200.117 283.355C214.516 282.101 228.22 269.605 231.467 255.117L231.602 254.423L231.646 254.176V253.93L231.669 253.907C231.691 253.885 231.691 253.818 231.691 253.818C231.691 253.818 231.699 253.781 231.714 253.706C231.714 253.706 231.736 253.527 231.736 253.437L231.758 253.37L236.439 226.409L243.537 185.474H243.56C247.478 162.879 268.707 142.971 290.966 141.023L358.146 135.223C372.881 133.924 382.734 144.919 380.338 159.811V159.789Z" fill="white"/>
</g>
<path d="M616 450V446.423L620.292 444.992C629.114 442.609 633.526 436.886 633.526 427.824V233.246C633.526 228.001 632.573 224.066 630.665 221.443C628.996 218.819 625.777 217.031 621.008 216.077L616 215.004V211.427L676.806 190.682L680.382 194.259L683.602 205.347C691.47 200.577 700.175 196.882 709.712 194.259C719.489 191.636 729.504 190.324 739.757 190.324C760.265 190.324 776.478 198.193 788.402 213.931C800.563 229.431 806.643 251.725 806.643 280.817C806.643 309.432 799.967 331.966 786.613 348.419C773.499 364.872 754.9 373.099 730.815 373.099C711.978 373.099 696.12 370.357 683.244 364.872V426.751C683.244 436.288 687.536 442.251 696.12 444.635L702.916 446.423V450H616ZM713.647 362.726C725.57 362.726 734.988 356.526 741.903 344.127C749.057 331.728 752.634 311.1 752.634 282.248C752.634 253.396 749.295 233.246 742.619 221.8C735.943 210.117 726.285 204.274 713.647 204.274C704.824 204.274 695.047 207.135 684.317 212.858V357.003C693.379 360.818 703.154 362.726 713.647 362.726ZM822.46 367.734V364.157L826.752 362.726C835.336 359.865 839.629 353.904 839.629 344.842V153.483C839.629 148.714 838.674 145.137 836.767 142.753C834.859 140.13 831.52 138.222 826.752 137.03L822.102 135.957V132.38L887.558 117L891.85 120.219L890.419 170.294V292.621C890.419 301.443 890.419 310.267 890.419 319.089C890.657 327.673 890.777 336.258 890.777 344.842C890.777 349.612 891.73 353.546 893.638 356.646C895.545 359.507 898.764 361.653 903.296 363.084L907.945 364.157V367.734H822.46ZM972.458 373.099C958.629 373.099 946.945 369.164 937.406 361.295C928.106 353.426 923.456 342.1 923.456 327.316C923.456 316.108 929.179 305.855 940.625 296.555C952.071 287.018 970.075 279.864 994.635 275.095C998.451 274.379 1002.74 273.664 1007.51 272.948C1012.28 271.995 1017.29 271.04 1022.53 270.087V241.83C1022.53 225.615 1020.51 214.289 1016.45 207.851C1012.64 201.175 1006.56 197.836 998.211 197.836C992.489 197.836 987.958 199.744 984.62 203.559C981.282 207.135 979.136 213.454 978.181 222.516L977.466 226.45C976.99 236.703 974.486 244.214 969.955 248.984C965.425 253.754 959.822 256.137 953.144 256.137C946.945 256.137 941.818 254.229 937.763 250.415C933.711 246.6 931.683 241.473 931.683 235.034C931.683 225.257 935.022 217.031 941.698 210.354C948.614 203.678 957.675 198.671 968.882 195.332C980.09 191.993 992.251 190.324 1005.36 190.324C1026.59 190.324 1042.92 195.57 1054.37 206.062C1066.05 216.315 1071.89 233.126 1071.89 256.495V335.542C1071.89 346.273 1076.9 351.638 1086.92 351.638H1094.78L1098 354.499C1093.47 360.222 1088.47 364.634 1082.98 367.734C1077.74 370.833 1070.22 372.383 1060.45 372.383C1049.96 372.383 1041.61 370 1035.41 365.23C1029.45 360.222 1025.51 353.664 1023.61 345.557C1016.45 353.189 1009.06 359.745 1001.43 365.23C994.039 370.475 984.382 373.099 972.458 373.099ZM994.277 351.28C999.047 351.28 1003.46 350.207 1007.51 348.061C1011.8 345.677 1016.81 342.1 1022.53 337.331V277.241C1020.15 277.718 1017.77 278.194 1015.38 278.671C1013 279.149 1010.25 279.625 1007.15 280.102C996.185 282.963 987.363 287.851 980.685 294.767C974.247 301.443 971.028 310.505 971.028 321.951C971.028 331.728 973.294 339.119 977.824 344.127C982.355 348.896 987.839 351.28 994.277 351.28ZM1148.29 171.725C1140.18 171.725 1133.26 169.221 1127.54 164.214C1122.06 158.968 1119.31 152.41 1119.31 144.541C1119.31 136.434 1122.06 129.876 1127.54 124.869C1133.26 119.861 1140.18 117.358 1148.29 117.358C1156.39 117.358 1163.19 119.861 1168.67 124.869C1174.16 129.876 1176.9 136.434 1176.9 144.541C1176.9 152.41 1174.16 158.968 1168.67 164.214C1163.19 169.221 1156.39 171.725 1148.29 171.725ZM1106.08 367.734V364.157L1111.09 362.726C1115.86 361.295 1119.07 359.149 1120.75 356.288C1122.65 353.426 1123.61 349.612 1123.61 344.842V232.888C1123.61 227.881 1122.65 224.184 1120.75 221.8C1119.07 219.177 1115.86 217.388 1111.09 216.435L1106.08 215.362V211.785L1171.54 190.682L1175.11 194.259L1174.04 245.049V345.2C1174.04 349.969 1174.87 353.784 1176.54 356.646C1178.45 359.507 1181.67 361.653 1186.2 363.084L1189.78 364.157V367.734H1106.08ZM1273.57 373.099C1258.31 373.099 1246.39 369.284 1237.81 361.653C1229.46 354.022 1225.29 341.861 1225.29 325.17V202.843H1200.61V199.266L1209.19 197.836C1216.58 196.167 1222.9 193.782 1228.15 190.682C1233.63 187.582 1239 183.409 1244.24 178.163L1273.57 145.614H1277.15L1276.08 195.69H1316.14V202.843H1275.72V331.608C1275.72 339.954 1277.51 346.273 1281.08 350.565C1284.9 354.857 1289.67 357.003 1295.39 357.003C1300.4 357.003 1304.81 355.81 1308.63 353.426C1312.44 350.803 1316.25 347.346 1320.07 343.054L1323.65 346.63C1318.88 354.737 1312.32 361.176 1303.98 365.945C1295.63 370.715 1285.49 373.099 1273.57 373.099Z" fill="#273445"/>
<defs>
<clipPath id="clip0_1102_3098">
<rect width="261.333" height="256" fill="white" transform="translate(120.889 135.111)"/>
</clipPath>
</defs>
</svg>
