<svg width="512" height="512" viewBox="0 0 512 512" fill="none" xmlns="http://www.w3.org/2000/svg">
<g clip-path="url(#clip0_1102_3097)">
<rect width="512" height="512" fill="white"/>
<rect width="512" height="512" rx="119" fill="#47A7F6"/>
<g clip-path="url(#clip1_1102_3097)">
<path d="M315.823 284.474L307.918 329.955C303.574 355.08 279.971 377.183 255.249 379.355L120.889 391.111L128.682 346.235L128.772 345.653C128.772 345.518 128.816 345.384 128.861 345.25C133.407 320.281 156.853 298.425 181.463 296.276L315.823 284.519V284.474Z" fill="white"/>
<path d="M380.338 159.789V159.923L380.181 160.684L380.024 161.535L375.546 187.422L370.821 214.697L368.537 227.842L368.38 228.76C364.259 251.176 343.165 270.837 321.04 272.785L200.117 283.355C214.516 282.101 228.22 269.605 231.467 255.117L231.602 254.423L231.646 254.176V253.93L231.669 253.907C231.691 253.885 231.691 253.818 231.691 253.818C231.691 253.818 231.699 253.781 231.714 253.706C231.714 253.706 231.736 253.527 231.736 253.437L231.758 253.37L236.439 226.409L243.537 185.474H243.56C247.478 162.879 268.707 142.971 290.966 141.023L358.146 135.223C372.881 133.924 382.734 144.919 380.338 159.811V159.789Z" fill="white"/>
</g>
</g>
<defs>
<clipPath id="clip0_1102_3097">
<rect width="512" height="512" fill="white"/>
</clipPath>
<clipPath id="clip1_1102_3097">
<rect width="261.333" height="256" fill="white" transform="translate(120.889 135.111)"/>
</clipPath>
</defs>
</svg>
